<svg width="22" height="22" viewBox="0 0 22 22" fill="none" xmlns="http://www.w3.org/2000/svg">
<path fill-rule="evenodd" clip-rule="evenodd" d="M10.9984 3.2998C11.4541 3.2998 11.8234 3.66917 11.8234 4.1248L11.8234 15.8265L16.1788 11.253C16.4946 10.9246 17.0168 10.9143 17.3453 11.2301C17.6737 11.5459 17.6839 12.0682 17.3681 12.3966L11.5931 18.4466C11.4376 18.6084 11.2229 18.6998 10.9984 18.6998C10.774 18.6998 10.5593 18.6084 10.4038 18.4466L4.62875 12.3966C4.31295 12.0682 4.32319 11.5459 4.65162 11.2301C4.98006 10.9143 5.50232 10.9246 5.81813 11.253L10.1734 15.8265L10.1734 4.1248C10.1734 3.66917 10.5428 3.2998 10.9984 3.2998Z" fill="#838894"/>
</svg>
