<svg width="18" height="18" viewBox="0 0 18 18" fill="none" xmlns="http://www.w3.org/2000/svg">
<path fill-rule="evenodd" clip-rule="evenodd" d="M9.00156 2.7002C9.37436 2.7002 9.67656 3.0024 9.67656 3.3752L9.67656 12.9493L13.24 9.20735C13.4984 8.93863 13.9257 8.93025 14.1944 9.18863C14.4631 9.44702 14.4715 9.87432 14.2131 10.143L9.48813 15.093C9.36086 15.2254 9.18517 15.3002 9.00156 15.3002C8.81795 15.3002 8.64226 15.2254 8.515 15.093L3.79 10.143C3.53162 9.87432 3.53999 9.44702 3.80871 9.18863C4.07744 8.93025 4.50474 8.93863 4.76313 9.20735L8.32656 12.9493L8.32656 3.3752C8.32656 3.0024 8.62877 2.7002 9.00156 2.7002Z" fill="#838894"/>
</svg>
