<svg width="16" height="16" viewBox="0 0 16 16" fill="none" xmlns="http://www.w3.org/2000/svg">
<path d="M12.0013 8.0002C11.9981 7.64947 11.8567 7.31414 11.608 7.06687L8.74797 4.20021C8.62306 4.07604 8.45409 4.00635 8.27797 4.00635C8.10185 4.00635 7.93288 4.07604 7.80797 4.20021C7.74548 4.26218 7.69589 4.33592 7.66204 4.41716C7.6282 4.4984 7.61077 4.58553 7.61077 4.67354C7.61077 4.76155 7.6282 4.84869 7.66204 4.92993C7.69589 5.01117 7.74548 5.0849 7.80797 5.14687L10.0013 7.33354H3.33464C3.15782 7.33354 2.98826 7.40378 2.86323 7.5288C2.73821 7.65383 2.66797 7.82339 2.66797 8.0002C2.66797 8.17702 2.73821 8.34658 2.86323 8.47161C2.98826 8.59663 3.15782 8.66687 3.33464 8.66687H10.0013L7.80797 10.8602C7.68243 10.9849 7.61156 11.1543 7.61093 11.3312C7.61031 11.5081 7.67998 11.678 7.80464 11.8035C7.92929 11.9291 8.0987 11.9999 8.27561 12.0006C8.45252 12.0012 8.62243 11.9315 8.74797 11.8069L11.608 8.9402C11.8584 8.6913 11.9998 8.35326 12.0013 8.0002V8.0002Z" fill="#000814"/>
</svg>
