<svg width="16" height="16" viewBox="0 0 16 16" fill="none" xmlns="http://www.w3.org/2000/svg">
<path d="M12.4715 5.55343C12.4096 5.48374 12.3358 5.42842 12.2546 5.39068C12.1734 5.35293 12.0862 5.3335 11.9982 5.3335C11.9102 5.3335 11.8231 5.35293 11.7419 5.39068C11.6607 5.42842 11.5869 5.48374 11.525 5.55343L8.47198 8.95871C8.41001 9.0284 8.33628 9.08371 8.25505 9.12146C8.17382 9.15921 8.0867 9.17864 7.9987 9.17864C7.9107 9.17864 7.82357 9.15921 7.74234 9.12146C7.66111 9.08371 7.58739 9.0284 7.52542 8.95871L4.47243 5.55343C4.41046 5.48374 4.33674 5.42842 4.25551 5.39068C4.17428 5.35293 4.08715 5.3335 3.99915 5.3335C3.91115 5.3335 3.82403 5.35293 3.7428 5.39068C3.66156 5.42842 3.58784 5.48374 3.52587 5.55343C3.40172 5.69273 3.33203 5.88118 3.33203 6.0776C3.33203 6.27403 3.40172 6.46247 3.52587 6.60178L6.58552 10.0145C6.96048 10.4322 7.46876 10.6668 7.9987 10.6668C8.52864 10.6668 9.03691 10.4322 9.41187 10.0145L12.4715 6.60178C12.5957 6.46247 12.6654 6.27403 12.6654 6.0776C12.6654 5.88118 12.5957 5.69273 12.4715 5.55343V5.55343Z" fill="#999DAA"/>
</svg>
