<svg width="14" height="14" viewBox="0 0 14 14" fill="none" xmlns="http://www.w3.org/2000/svg">
<g clip-path="url(#clip0_169701_17710)">
<mask id="path-1-inside-1_169701_17710" fill="white">
<path d="M7 0C5.61553 0 4.26216 0.410543 3.11101 1.17971C1.95987 1.94888 1.06266 3.04213 0.532846 4.32122C0.003033 5.6003 -0.13559 7.00777 0.134506 8.36563C0.404603 9.7235 1.07129 10.9708 2.05026 11.9497C3.02922 12.9287 4.2765 13.5954 5.63437 13.8655C6.99224 14.1356 8.3997 13.997 9.67879 13.4672C10.9579 12.9373 12.0511 12.0401 12.8203 10.889C13.5895 9.73785 14 8.38447 14 7C13.998 5.1441 13.2599 3.36479 11.9475 2.05247C10.6352 0.74015 8.8559 0.0020073 7 0V0ZM7 12.8333C5.84628 12.8333 4.71846 12.4912 3.75918 11.8502C2.79989 11.2093 2.05222 10.2982 1.61071 9.23232C1.16919 8.16642 1.05368 6.99353 1.27876 5.86197C1.50384 4.73042 2.05941 3.69102 2.87521 2.87521C3.69102 2.0594 4.73042 1.50383 5.86198 1.27875C6.99353 1.05367 8.16642 1.16919 9.23232 1.6107C10.2982 2.05221 11.2093 2.79989 11.8502 3.75917C12.4912 4.71846 12.8333 5.84628 12.8333 7C12.8316 8.54658 12.2165 10.0293 11.1229 11.1229C10.0293 12.2165 8.54658 12.8316 7 12.8333V12.8333Z"/>
</mask>
<path d="M7 0C5.61553 0 4.26216 0.410543 3.11101 1.17971C1.95987 1.94888 1.06266 3.04213 0.532846 4.32122C0.003033 5.6003 -0.13559 7.00777 0.134506 8.36563C0.404603 9.7235 1.07129 10.9708 2.05026 11.9497C3.02922 12.9287 4.2765 13.5954 5.63437 13.8655C6.99224 14.1356 8.3997 13.997 9.67879 13.4672C10.9579 12.9373 12.0511 12.0401 12.8203 10.889C13.5895 9.73785 14 8.38447 14 7C13.998 5.1441 13.2599 3.36479 11.9475 2.05247C10.6352 0.74015 8.8559 0.0020073 7 0V0ZM7 12.8333C5.84628 12.8333 4.71846 12.4912 3.75918 11.8502C2.79989 11.2093 2.05222 10.2982 1.61071 9.23232C1.16919 8.16642 1.05368 6.99353 1.27876 5.86197C1.50384 4.73042 2.05941 3.69102 2.87521 2.87521C3.69102 2.0594 4.73042 1.50383 5.86198 1.27875C6.99353 1.05367 8.16642 1.16919 9.23232 1.6107C10.2982 2.05221 11.2093 2.79989 11.8502 3.75917C12.4912 4.71846 12.8333 5.84628 12.8333 7C12.8316 8.54658 12.2165 10.0293 11.1229 11.1229C10.0293 12.2165 8.54658 12.8316 7 12.8333V12.8333Z" fill="#EF476F"/>
<path d="M7 0H28.3333V-21.3333L7 -21.3333L7 0ZM14 7L35.3333 7V6.98846L35.3333 6.97693L14 7ZM7 0H-14.3333V21.3103L6.97693 21.3333L7 0ZM12.8333 7L34.1667 7.02343L34.1667 7.01171V7H12.8333ZM7 -21.3333C1.3962 -21.3333 -4.08176 -19.6716 -8.74115 -16.5583L14.9632 18.9177C12.6061 20.4927 9.83487 21.3333 7 21.3333L7 -21.3333ZM-8.74115 -16.5583C-13.4005 -13.445 -17.0321 -9.01993 -19.1766 -3.8427L20.2423 12.4851C19.1574 15.1042 17.3203 17.3428 14.9632 18.9177L-8.74115 -16.5583ZM-19.1766 -3.8427C-21.3211 1.33454 -21.8822 7.03143 -20.7889 12.5276L21.0579 4.20371C21.611 6.9841 21.3271 9.86606 20.2423 12.4851L-19.1766 -3.8427ZM-20.7889 12.5276C-19.6957 18.0237 -16.9972 23.0722 -13.0347 27.0347L17.1352 -3.1352C19.1398 -1.13064 20.5049 1.42331 21.0579 4.20371L-20.7889 12.5276ZM-13.0347 27.0347C-9.0722 30.9972 -4.02368 33.6957 1.47244 34.7889L9.7963 -7.05792C12.5767 -6.50487 15.1306 -5.13975 17.1352 -3.1352L-13.0347 27.0347ZM1.47244 34.7889C6.96857 35.8822 12.6655 35.3211 17.8427 33.1766L1.51487 -6.24227C4.13395 -7.32713 7.0159 -7.61098 9.7963 -7.05792L1.47244 34.7889ZM17.8427 33.1766C23.0199 31.0321 27.445 27.4006 30.5583 22.7412L-4.91773 -0.963172C-3.34276 -3.32028 -1.1042 -5.15742 1.51487 -6.24227L17.8427 33.1766ZM30.5583 22.7412C33.6716 18.0818 35.3333 12.6038 35.3333 7L-7.33333 7C-7.33333 4.16513 -6.49269 1.39393 -4.91773 -0.963172L30.5583 22.7412ZM35.3333 6.97693C35.3252 -0.528922 32.3399 -7.72503 27.0325 -13.0325L-3.13741 17.1374C-5.82022 14.4546 -7.32922 10.8171 -7.33332 7.02307L35.3333 6.97693ZM27.0325 -13.0325C21.725 -18.3399 14.5289 -21.3252 7.02308 -21.3333L6.97693 21.3333C3.18288 21.3292 -0.454608 19.8202 -3.13741 17.1374L27.0325 -13.0325ZM28.3333 0V0H-14.3333V0H28.3333ZM7 -8.5C10.0656 -8.5 13.0624 -7.59094 15.6113 -5.88778L-8.09299 29.5883C-3.62546 32.5734 1.62694 34.1667 7 34.1667L7 -8.5ZM15.6113 -5.88778C18.1603 -4.18462 20.147 -1.76385 21.3201 1.06841L-18.0987 17.3962C-16.0425 22.3603 -12.5605 26.6031 -8.09299 29.5883L15.6113 -5.88778ZM21.3201 1.06841C22.4933 3.90066 22.8002 7.0172 22.2022 10.0239L-19.6447 1.70005C-20.6929 6.96986 -20.1549 12.4322 -18.0987 17.3962L21.3201 1.06841ZM22.2022 10.0239C21.6041 13.0306 20.1279 15.7924 17.9602 17.9602L-12.2097 -12.2097C-16.0091 -8.4104 -18.5964 -3.56977 -19.6447 1.70005L22.2022 10.0239ZM17.9602 17.9602C15.7924 20.1279 13.0306 21.6041 10.0239 22.2022L1.70005 -19.6447C-3.56977 -18.5964 -8.4104 -16.0091 -12.2097 -12.2097L17.9602 17.9602ZM10.0239 22.2022C7.0172 22.8002 3.90066 22.4933 1.06841 21.3201L17.3962 -18.0987C12.4322 -20.1549 6.96987 -20.6929 1.70005 -19.6447L10.0239 22.2022ZM1.06841 21.3201C-1.76385 20.147 -4.18462 18.1603 -5.88778 15.6113L29.5883 -8.09299C26.6032 -12.5605 22.3603 -16.0425 17.3962 -18.0987L1.06841 21.3201ZM-5.88778 15.6113C-7.59094 13.0624 -8.5 10.0656 -8.5 7H34.1667C34.1667 1.62694 32.5734 -3.62546 29.5883 -8.09299L-5.88778 15.6113ZM-8.49998 6.97657C-8.49548 2.87332 -6.86347 -1.06059 -3.96203 -3.96203L26.2079 26.2079C31.2965 21.1192 34.1588 14.2198 34.1667 7.02343L-8.49998 6.97657ZM-3.96203 -3.96203C-1.06059 -6.86347 2.87332 -8.49548 6.97658 -8.49999L7.02343 34.1667C14.2198 34.1588 21.1192 31.2965 26.2079 26.2079L-3.96203 -3.96203Z" fill="#EF476F" mask="url(#path-1-inside-1_169701_17710)"/>
<path d="M6.9987 5.8335H6.41536C6.26065 5.8335 6.11228 5.89495 6.00289 6.00435C5.89349 6.11375 5.83203 6.26212 5.83203 6.41683C5.83203 6.57154 5.89349 6.71991 6.00289 6.82931C6.11228 6.9387 6.26065 7.00016 6.41536 7.00016H6.9987V10.5002C6.9987 10.6549 7.06015 10.8032 7.16955 10.9126C7.27895 11.022 7.42732 11.0835 7.58203 11.0835C7.73674 11.0835 7.88511 11.022 7.99451 10.9126C8.1039 10.8032 8.16536 10.6549 8.16536 10.5002V7.00016C8.16536 6.69074 8.04244 6.394 7.82365 6.17521C7.60486 5.95641 7.30811 5.8335 6.9987 5.8335Z" fill="#EF476F"/>
<path d="M7 4.6665C7.48325 4.6665 7.875 4.27475 7.875 3.7915C7.875 3.30825 7.48325 2.9165 7 2.9165C6.51675 2.9165 6.125 3.30825 6.125 3.7915C6.125 4.27475 6.51675 4.6665 7 4.6665Z" fill="#EF476F"/>
</g>
<defs>
<clipPath id="clip0_169701_17710">
<rect width="14" height="14" fill="white"/>
</clipPath>
</defs>
</svg>
