<svg width="17" height="16" viewBox="0 0 17 16" fill="none" xmlns="http://www.w3.org/2000/svg">
<path d="M12.9715 5.55343C12.9096 5.48374 12.8358 5.42842 12.7546 5.39068C12.6734 5.35293 12.5862 5.3335 12.4982 5.3335C12.4102 5.3335 12.3231 5.35293 12.2419 5.39068C12.1607 5.42842 12.0869 5.48374 12.025 5.55343L8.97198 8.95871C8.91001 9.0284 8.83628 9.08371 8.75505 9.12146C8.67382 9.15921 8.5867 9.17864 8.4987 9.17864C8.4107 9.17864 8.32357 9.15921 8.24234 9.12146C8.16111 9.08371 8.08739 9.0284 8.02542 8.95871L4.97243 5.55343C4.91046 5.48374 4.83674 5.42842 4.75551 5.39068C4.67428 5.35293 4.58715 5.3335 4.49915 5.3335C4.41115 5.3335 4.32403 5.35293 4.2428 5.39068C4.16156 5.42842 4.08784 5.48374 4.02587 5.55343C3.90172 5.69273 3.83203 5.88118 3.83203 6.0776C3.83203 6.27403 3.90172 6.46247 4.02587 6.60178L7.08552 10.0145C7.46048 10.4322 7.96876 10.6668 8.4987 10.6668C9.02864 10.6668 9.53691 10.4322 9.91187 10.0145L12.9715 6.60178C13.0957 6.46247 13.1654 6.27403 13.1654 6.0776C13.1654 5.88118 13.0957 5.69273 12.9715 5.55343V5.55343Z" fill="#000814"/>
</svg>
