<svg width="15" height="14" viewBox="0 0 15 14" fill="none" xmlns="http://www.w3.org/2000/svg">
<path d="M11.415 4.85894C11.3608 4.79797 11.2963 4.74957 11.2252 4.71654C11.1541 4.68351 11.0779 4.6665 11.0009 4.6665C10.9239 4.6665 10.8477 4.68351 10.7766 4.71654C10.7055 4.74957 10.641 4.79797 10.5868 4.85894L7.91542 7.83857C7.8612 7.89955 7.79669 7.94794 7.72561 7.98097C7.65454 8.014 7.5783 8.03101 7.5013 8.03101C7.4243 8.03101 7.34807 8.014 7.27699 7.98097C7.20591 7.94794 7.1414 7.89955 7.08718 7.83857L4.41582 4.85894C4.3616 4.79797 4.29709 4.74957 4.22601 4.71654C4.15493 4.68351 4.0787 4.6665 4.0017 4.6665C3.9247 4.6665 3.84846 4.68351 3.77739 4.71654C3.70631 4.74957 3.6418 4.79797 3.58758 4.85894C3.47894 4.98084 3.41797 5.14572 3.41797 5.3176C3.41797 5.48947 3.47894 5.65436 3.58758 5.77625L6.26478 8.76238C6.59286 9.12788 7.0376 9.33317 7.5013 9.33317C7.965 9.33317 8.40974 9.12788 8.73783 8.76238L11.415 5.77625C11.5237 5.65436 11.5846 5.48947 11.5846 5.3176C11.5846 5.14572 11.5237 4.98084 11.415 4.85894Z" fill="#AFB2BF"/>
</svg>
