<svg width="17" height="16" viewBox="0 0 17 16" fill="none" xmlns="http://www.w3.org/2000/svg">
<path d="M11.8727 6.34992L9.48203 3.95926C9.29444 3.77175 9.04003 3.66644 8.7748 3.6665C8.50956 3.66657 8.25521 3.77199 8.0677 3.95959C7.88019 4.14718 7.77488 4.40159 7.77495 4.66682C7.77501 4.93206 7.88044 5.18641 8.06803 5.37392L9.69403 6.99992H3.83203C3.56681 6.99992 3.31246 7.10528 3.12492 7.29281C2.93739 7.48035 2.83203 7.73471 2.83203 7.99992C2.83203 8.26514 2.93739 8.51949 3.12492 8.70703C3.31246 8.89456 3.56681 8.99992 3.83203 8.99992H9.69403L8.06803 10.6259C7.88044 10.8134 7.77501 11.0678 7.77495 11.333C7.77488 11.5983 7.88019 11.8527 8.0677 12.0403C8.25521 12.2279 8.50956 12.3333 8.7748 12.3333C9.04003 12.3334 9.29444 12.2281 9.48203 12.0406L11.8727 9.64992C12.3095 9.2119 12.5548 8.61853 12.5548 7.99992C12.5548 7.38131 12.3095 6.78795 11.8727 6.34992V6.34992Z" fill="#999DAA"/>
</svg>
