<svg width="25" height="24" viewBox="0 0 25 24" fill="none" xmlns="http://www.w3.org/2000/svg">
<path d="M15.0395 17.0817C16.934 16.857 18.7609 16.4116 20.4937 15.7719C19.0569 14.177 18.1824 12.0656 18.1824 9.75V9.04919C18.1826 9.03281 18.1826 9.01641 18.1826 9C18.1826 5.68629 15.4963 3 12.1826 3C8.86891 3 6.18262 5.68629 6.18262 9L6.18242 9.75C6.18242 12.0656 5.30789 14.177 3.87109 15.7719C5.60402 16.4116 7.43105 16.857 9.32575 17.0818M15.0395 17.0817C14.1026 17.1928 13.1492 17.25 12.1824 17.25C11.2158 17.25 10.2625 17.1929 9.32575 17.0818M15.0395 17.0817C15.1324 17.3711 15.1826 17.6797 15.1826 18C15.1826 19.6569 13.8395 21 12.1826 21C10.5258 21 9.18262 19.6569 9.18262 18C9.18262 17.6797 9.23281 17.3712 9.32575 17.0818" stroke="#999DAA" stroke-width="1.5" stroke-linecap="round" stroke-linejoin="round"/>
<circle cx="17.1836" cy="5" r="3.75" fill="#EF476F" stroke="#161D29" stroke-width="1.5"/>
</svg>
