<svg width="24" height="24" viewBox="0 0 24 24" fill="none" xmlns="http://www.w3.org/2000/svg">
<path d="M23.0318 7.28105L20.2286 10.0842C19.6624 16.6485 14.1265 21.7504 7.50115 21.7504C6.13989 21.7504 5.01771 21.5348 4.16552 21.1092C3.47833 20.7651 3.19708 20.3967 3.12677 20.2917C3.06407 20.1977 3.02344 20.0907 3.00789 19.9787C2.99235 19.8668 3.00231 19.7528 3.03701 19.6453C3.07172 19.5377 3.13029 19.4394 3.20833 19.3577C3.28637 19.2759 3.38188 19.2129 3.48771 19.1732C3.51208 19.1639 5.76021 18.3004 7.18802 16.657C6.39619 16.006 5.70497 15.2414 5.13677 14.3882C3.97427 12.6623 2.67302 9.66417 3.07427 5.18386C3.08699 5.0415 3.14012 4.90573 3.22741 4.79256C3.3147 4.67938 3.43252 4.5935 3.56698 4.54503C3.70144 4.49657 3.84696 4.48753 3.98638 4.51899C4.12581 4.55045 4.25334 4.6211 4.35396 4.72261C4.38677 4.75542 7.47396 7.82574 11.2483 8.82136V8.25042C11.2469 7.65173 11.3653 7.0588 11.5965 6.50655C11.8277 5.9543 12.167 5.4539 12.5946 5.0348C13.0098 4.62017 13.5039 4.2929 14.0476 4.07231C14.5914 3.85172 15.1738 3.74227 15.7605 3.75042C16.5476 3.75819 17.3193 3.96947 18.0006 4.36374C18.6818 4.75801 19.2495 5.32184 19.6483 6.00042H22.5011C22.6496 6.00031 22.7947 6.04423 22.9181 6.12663C23.0416 6.20904 23.1378 6.32621 23.1946 6.46333C23.2514 6.60045 23.2663 6.75134 23.2373 6.8969C23.2083 7.04247 23.1368 7.17616 23.0318 7.28105Z" fill="#6E727F"/>
</svg>
